<?xml version="1.0" encoding="UTF-8"?>
<svg width="48px" height="24px" viewBox="0 0 48 24" version="1.1" xmlns="http://www.w3.org/2000/svg" xmlns:xlink="http://www.w3.org/1999/xlink">
    <title>0-fee-icon</title>
    <g id="0-fee-icon" stroke="none" fill="none" transform="translate(0.1588, 0)" fill-rule="evenodd" stroke-width="1">
        <g id="0fee" transform="translate(0.7, 1.5)">
            <rect id="Rectangle-Copy" stroke="#00EE91" stroke-width="1.4" x="0" y="0" width="45.6" height="14" rx="7"></rect>
            <g id="0%-Fee" transform="translate(6.67, 2.9179)" fill="#00EE91" fill-rule="nonzero">
                <path d="M4.89,3.79 C4.89,5.02333333 4.67833333,5.96 4.255,6.6 C3.83166667,7.24 3.22666667,7.56 2.44,7.56 C1.66,7.56 1.05833333,7.24 0.635,6.6 C0.21166667,5.96 0,5.02333333 0,3.79 C0,2.55 0.21166667,1.60833333 0.635,0.965 C1.05833333,0.321666667 1.66,0 2.44,0 C3.22666667,0 3.83166667,0.32 4.255,0.96 C4.67833333,1.6 4.89,2.54333333 4.89,3.79 Z M1.14,3.79 C1.14,4.72333333 1.24666667,5.42166667 1.46,5.885 C1.67333333,6.34833333 2,6.58 2.44,6.58 C2.88666667,6.58 3.215,6.35 3.425,5.89 C3.635,5.43 3.74,4.73 3.74,3.79 C3.74,2.84333333 3.635,2.13833333 3.425,1.675 C3.215,1.21166667 2.88666667,0.98 2.44,0.98 C2,0.98 1.67333333,1.21166667 1.46,1.675 C1.24666667,2.13833333 1.14,2.84333333 1.14,3.79 Z" id="Shape"></path>
                <path d="M8.87,1.71 C8.87,2.05 8.795,2.34833333 8.645,2.605 C8.495,2.86166667 8.29333333,3.06 8.04,3.2 C7.78666667,3.34 7.50666667,3.41 7.2,3.41 C6.89333333,3.41 6.61333333,3.34 6.36,3.2 C6.10666667,3.06 5.905,2.86166667 5.755,2.605 C5.605,2.34833333 5.53,2.05 5.53,1.71 C5.53,1.37 5.605,1.07166667 5.755,0.815 C5.905,0.55833333 6.10666667,0.36 6.36,0.22 C6.61333333,0.08 6.89333333,0.01 7.2,0.01 C7.50666667,0.01 7.78666667,0.08 8.04,0.22 C8.29333333,0.36 8.495,0.55833333 8.645,0.815 C8.795,1.07166667 8.87,1.37 8.87,1.71 Z M10.98,0.12 L12.06,0.12 L7.69,7.45 L6.61,7.45 L10.98,0.12 Z M7.97,1.71 C7.97,1.45666667 7.89666667,1.24833333 7.75,1.085 C7.60333333,0.92166667 7.42,0.84 7.2,0.84 C6.98,0.84 6.79833333,0.92 6.655,1.08 C6.51166667,1.24 6.44,1.45 6.44,1.71 C6.44,1.96333333 6.51166667,2.17 6.655,2.33 C6.79833333,2.49 6.98,2.57 7.2,2.57 C7.42,2.57 7.60333333,2.49 7.75,2.33 C7.89666667,2.17 7.97,1.96333333 7.97,1.71 Z M13.14,5.86 C13.14,6.2 13.065,6.49833333 12.915,6.755 C12.765,7.01166667 12.5616667,7.21 12.305,7.35 C12.0483333,7.49 11.7666667,7.56 11.46,7.56 C11.1533333,7.56 10.8733333,7.49 10.62,7.35 C10.3666667,7.21 10.165,7.01166667 10.015,6.755 C9.865,6.49833333 9.79,6.2 9.79,5.86 C9.79,5.52 9.865,5.22166667 10.015,4.965 C10.165,4.70833333 10.3666667,4.51 10.62,4.37 C10.8733333,4.23 11.1533333,4.16 11.46,4.16 C11.7666667,4.16 12.0483333,4.23 12.305,4.37 C12.5616667,4.51 12.765,4.70833333 12.915,4.965 C13.065,5.22166667 13.14,5.52 13.14,5.86 Z M12.23,5.86 C12.23,5.60666667 12.1566667,5.4 12.01,5.24 C11.8633333,5.08 11.68,5 11.46,5 C11.2466667,5 11.0666667,5.08 10.92,5.24 C10.7733333,5.4 10.7,5.60666667 10.7,5.86 C10.7,6.12 10.7733333,6.32833333 10.92,6.485 C11.0666667,6.64166667 11.2466667,6.72 11.46,6.72 C11.68,6.72 11.8633333,6.64166667 12.01,6.485 C12.1566667,6.32833333 12.23,6.12 12.23,5.86 Z" id="Shape"></path>
                <polygon id="Path" points="16.86 0.13 21.44 0.13 21.44 1.08 17.93 1.08 17.93 3.35 21.07 3.35 21.07 4.3 17.93 4.3 17.93 7.45 16.86 7.45"></polygon>
                <path d="M24.66,2.14 C25.1133333,2.14 25.51,2.245 25.85,2.455 C26.19,2.665 26.4533333,2.95166667 26.64,3.315 C26.8266667,3.67833333 26.92,4.08666667 26.92,4.54 C26.92,4.69333333 26.9033333,4.87666667 26.87,5.09 L23.23,5.09 C23.27,5.61 23.43,6.00166667 23.71,6.265 C23.99,6.52833333 24.34,6.66 24.76,6.66 C25.3066667,6.66 25.7033333,6.43333333 25.95,5.98 L26.72,6.43 C26.5866667,6.79 26.3333333,7.06833333 25.96,7.265 C25.5866667,7.46166667 25.17,7.56 24.71,7.56 C24.2366667,7.56 23.8066667,7.455 23.42,7.245 C23.0333333,7.035 22.725,6.72333333 22.495,6.31 C22.265,5.89666667 22.15,5.40333333 22.15,4.83 C22.15,4.27 22.265,3.78666667 22.495,3.38 C22.725,2.97333333 23.0316667,2.665 23.415,2.455 C23.7983333,2.245 24.2133333,2.14 24.66,2.14 Z M24.62,3.04 C24.28,3.04 23.985,3.14833333 23.735,3.365 C23.485,3.58166667 23.3266667,3.89666667 23.26,4.31 L25.84,4.31 C25.8133333,3.91 25.69,3.59833333 25.47,3.375 C25.25,3.15166667 24.9666667,3.04 24.62,3.04 Z" id="Shape"></path>
                <path d="M30.16,2.14 C30.6133333,2.14 31.01,2.245 31.35,2.455 C31.69,2.665 31.9533333,2.95166667 32.14,3.315 C32.3266667,3.67833333 32.42,4.08666667 32.42,4.54 C32.42,4.69333333 32.4033333,4.87666667 32.37,5.09 L28.73,5.09 C28.77,5.61 28.93,6.00166667 29.21,6.265 C29.49,6.52833333 29.84,6.66 30.26,6.66 C30.8066667,6.66 31.2033333,6.43333333 31.45,5.98 L32.22,6.43 C32.0866667,6.79 31.8333333,7.06833333 31.46,7.265 C31.0866667,7.46166667 30.67,7.56 30.21,7.56 C29.7366667,7.56 29.3066667,7.455 28.92,7.245 C28.5333333,7.035 28.225,6.72333333 27.995,6.31 C27.765,5.89666667 27.65,5.40333333 27.65,4.83 C27.65,4.27 27.765,3.78666667 27.995,3.38 C28.225,2.97333333 28.5316667,2.665 28.915,2.455 C29.2983333,2.245 29.7133333,2.14 30.16,2.14 Z M30.12,3.04 C29.78,3.04 29.485,3.14833333 29.235,3.365 C28.985,3.58166667 28.8266667,3.89666667 28.76,4.31 L31.34,4.31 C31.3133333,3.91 31.19,3.59833333 30.97,3.375 C30.75,3.15166667 30.4666667,3.04 30.12,3.04 Z" id="Shape"></path>
            </g>
        </g>
    </g>
</svg>