<?xml version="1.0" encoding="UTF-8"?>
<svg xmlns="http://www.w3.org/2000/svg" xmlns:xlink="http://www.w3.org/1999/xlink" width="64px" height="32px" viewBox="0 0 64 32" version="1.1">
<g id="surface1">
<path style="fill:none;stroke-width:1.4;stroke-linecap:butt;stroke-linejoin:miter;stroke:rgb(0%,93.333334%,56.862748%);stroke-opacity:1;stroke-miterlimit:4;" d="M 6.998622 0 L 38.601161 0 C 42.465419 0 45.600184 3.134766 45.600184 6.999023 C 45.600184 10.866211 42.465419 14.000977 38.601161 14.000977 L 6.998622 14.000977 C 3.134364 14.000977 -0.000401556 10.866211 -0.000401556 6.999023 C -0.000401556 3.134766 3.134364 0 6.998622 0 Z M 6.998622 0 " transform="matrix(1.333333,0,0,1.333333,1.145067,2)"/>
<path style=" stroke:none;fill-rule:nonzero;fill:rgb(0%,93.333334%,56.862748%);fill-opacity:1;" d="M 16.558594 10.945312 C 16.558594 12.589844 16.277344 13.835938 15.710938 14.691406 C 15.148438 15.542969 14.339844 15.96875 13.292969 15.96875 C 12.25 15.96875 11.449219 15.542969 10.886719 14.691406 C 10.320312 13.835938 10.039062 12.589844 10.039062 10.945312 C 10.039062 9.289062 10.320312 8.035156 10.886719 7.175781 C 11.449219 6.320312 12.25 5.890625 13.292969 5.890625 C 14.339844 5.890625 15.148438 6.316406 15.710938 7.171875 C 16.277344 8.023438 16.558594 9.28125 16.558594 10.945312 Z M 11.558594 10.945312 C 11.558594 12.1875 11.699219 13.121094 11.984375 13.738281 C 12.269531 14.355469 12.703125 14.664062 13.292969 14.664062 C 13.886719 14.664062 14.324219 14.355469 14.605469 13.742188 C 14.886719 13.128906 15.023438 12.195312 15.023438 10.945312 C 15.023438 9.683594 14.886719 8.742188 14.605469 8.125 C 14.324219 7.507812 13.886719 7.195312 13.292969 7.195312 C 12.703125 7.195312 12.269531 7.507812 11.984375 8.125 C 11.699219 8.742188 11.558594 9.683594 11.558594 10.945312 Z M 11.558594 10.945312 "/>
<path style=" stroke:none;fill-rule:nonzero;fill:rgb(0%,93.333334%,56.862748%);fill-opacity:1;" d="M 21.863281 8.171875 C 21.863281 8.625 21.765625 9.023438 21.566406 9.363281 C 21.363281 9.707031 21.097656 9.96875 20.757812 10.15625 C 20.421875 10.34375 20.046875 10.4375 19.636719 10.4375 C 19.230469 10.4375 18.855469 10.34375 18.519531 10.15625 C 18.179688 9.96875 17.910156 9.707031 17.710938 9.363281 C 17.511719 9.023438 17.410156 8.625 17.410156 8.171875 C 17.410156 7.71875 17.511719 7.320312 17.710938 6.976562 C 17.910156 6.636719 18.179688 6.371094 18.519531 6.183594 C 18.855469 5.996094 19.230469 5.902344 19.636719 5.902344 C 20.046875 5.902344 20.421875 5.996094 20.757812 6.183594 C 21.097656 6.371094 21.363281 6.636719 21.566406 6.976562 C 21.765625 7.320312 21.863281 7.71875 21.863281 8.171875 Z M 24.679688 6.050781 L 26.117188 6.050781 L 20.292969 15.824219 L 18.851562 15.824219 Z M 20.664062 8.171875 C 20.664062 7.832031 20.566406 7.554688 20.371094 7.335938 C 20.175781 7.121094 19.933594 7.011719 19.636719 7.011719 C 19.34375 7.011719 19.101562 7.117188 18.910156 7.332031 C 18.71875 7.542969 18.625 7.824219 18.625 8.171875 C 18.625 8.507812 18.71875 8.785156 18.910156 8.996094 C 19.101562 9.210938 19.34375 9.316406 19.636719 9.316406 C 19.933594 9.316406 20.175781 9.210938 20.371094 8.996094 C 20.566406 8.785156 20.664062 8.507812 20.664062 8.171875 Z M 27.558594 13.703125 C 27.558594 14.15625 27.457031 14.554688 27.257812 14.898438 C 27.058594 15.238281 26.789062 15.503906 26.445312 15.691406 C 26.101562 15.878906 25.726562 15.96875 25.320312 15.96875 C 24.910156 15.96875 24.535156 15.878906 24.199219 15.691406 C 23.859375 15.503906 23.589844 15.238281 23.390625 14.898438 C 23.191406 14.554688 23.089844 14.15625 23.089844 13.703125 C 23.089844 13.25 23.191406 12.851562 23.390625 12.511719 C 23.589844 12.167969 23.859375 11.902344 24.199219 11.71875 C 24.535156 11.53125 24.910156 11.4375 25.320312 11.4375 C 25.726562 11.4375 26.101562 11.53125 26.445312 11.71875 C 26.789062 11.902344 27.058594 12.167969 27.257812 12.511719 C 27.457031 12.851562 27.558594 13.25 27.558594 13.703125 Z M 26.34375 13.703125 C 26.34375 13.367188 26.246094 13.089844 26.050781 12.878906 C 25.855469 12.664062 25.613281 12.558594 25.320312 12.558594 C 25.035156 12.558594 24.792969 12.664062 24.597656 12.878906 C 24.402344 13.089844 24.304688 13.367188 24.304688 13.703125 C 24.304688 14.050781 24.402344 14.328125 24.597656 14.539062 C 24.792969 14.746094 25.035156 14.851562 25.320312 14.851562 C 25.613281 14.851562 25.855469 14.746094 26.050781 14.539062 C 26.246094 14.328125 26.34375 14.050781 26.34375 13.703125 Z M 26.34375 13.703125 "/>
<path style=" stroke:none;fill-rule:nonzero;fill:rgb(0%,93.333334%,56.862748%);fill-opacity:1;" d="M 32.519531 6.0625 L 38.625 6.0625 L 38.625 7.332031 L 33.945312 7.332031 L 33.945312 10.355469 L 38.132812 10.355469 L 38.132812 11.625 L 33.945312 11.625 L 33.945312 15.824219 L 32.519531 15.824219 Z M 32.519531 6.0625 "/>
<path style=" stroke:none;fill-rule:nonzero;fill:rgb(0%,93.333334%,56.862748%);fill-opacity:1;" d="M 42.917969 8.742188 C 43.523438 8.742188 44.050781 8.882812 44.503906 9.164062 C 44.957031 9.445312 45.308594 9.824219 45.558594 10.308594 C 45.808594 10.796875 45.933594 11.339844 45.933594 11.945312 C 45.933594 12.148438 45.910156 12.394531 45.863281 12.675781 L 41.011719 12.675781 C 41.066406 13.371094 41.277344 13.894531 41.652344 14.242188 C 42.023438 14.59375 42.492188 14.769531 43.050781 14.769531 C 43.78125 14.769531 44.308594 14.46875 44.636719 13.863281 L 45.664062 14.464844 C 45.488281 14.945312 45.148438 15.316406 44.652344 15.578125 C 44.152344 15.839844 43.597656 15.96875 42.984375 15.96875 C 42.355469 15.96875 41.78125 15.832031 41.265625 15.550781 C 40.75 15.269531 40.339844 14.855469 40.03125 14.304688 C 39.726562 13.753906 39.570312 13.09375 39.570312 12.332031 C 39.570312 11.582031 39.726562 10.9375 40.03125 10.398438 C 40.339844 9.855469 40.746094 9.445312 41.257812 9.164062 C 41.769531 8.882812 42.324219 8.742188 42.917969 8.742188 Z M 42.863281 9.945312 C 42.410156 9.945312 42.019531 10.089844 41.683594 10.378906 C 41.351562 10.667969 41.140625 11.085938 41.050781 11.636719 L 44.492188 11.636719 C 44.457031 11.105469 44.292969 10.6875 44 10.390625 C 43.703125 10.09375 43.328125 9.945312 42.863281 9.945312 Z M 42.863281 9.945312 "/>
<path style=" stroke:none;fill-rule:nonzero;fill:rgb(0%,93.333334%,56.862748%);fill-opacity:1;" d="M 50.25 8.742188 C 50.855469 8.742188 51.386719 8.882812 51.839844 9.164062 C 52.292969 9.445312 52.644531 9.824219 52.890625 10.308594 C 53.140625 10.796875 53.265625 11.339844 53.265625 11.945312 C 53.265625 12.148438 53.242188 12.394531 53.199219 12.675781 L 48.34375 12.675781 C 48.398438 13.371094 48.613281 13.894531 48.984375 14.242188 C 49.359375 14.59375 49.824219 14.769531 50.386719 14.769531 C 51.113281 14.769531 51.644531 14.46875 51.972656 13.863281 L 53 14.464844 C 52.820312 14.945312 52.484375 15.316406 51.984375 15.578125 C 51.488281 15.839844 50.933594 15.96875 50.320312 15.96875 C 49.6875 15.96875 49.113281 15.832031 48.597656 15.550781 C 48.082031 15.269531 47.671875 14.855469 47.363281 14.304688 C 47.058594 13.753906 46.90625 13.09375 46.90625 12.332031 C 46.90625 11.582031 47.058594 10.9375 47.363281 10.398438 C 47.671875 9.855469 48.082031 9.445312 48.589844 9.164062 C 49.101562 8.882812 49.65625 8.742188 50.25 8.742188 Z M 50.199219 9.945312 C 49.746094 9.945312 49.351562 10.089844 49.019531 10.378906 C 48.683594 10.667969 48.472656 11.085938 48.386719 11.636719 L 51.824219 11.636719 C 51.789062 11.105469 51.625 10.6875 51.332031 10.390625 C 51.039062 10.09375 50.660156 9.945312 50.199219 9.945312 Z M 50.199219 9.945312 "/>
</g>
</svg>
