<?xml version="1.0" encoding="UTF-8"?>
<svg width="33px" height="32px" viewBox="0 0 33 32" version="1.1" xmlns="http://www.w3.org/2000/svg" xmlns:xlink="http://www.w3.org/1999/xlink">
    <title>privacy-icon</title>
    <g id="privacy-icon" stroke="none" fill="none" transform="translate(0.325, 0)" fill-rule="nonzero">
        <path d="M3.37290346,2.34602602 C3.08931803,2.06243333 2.62951874,2.06243333 2.34592812,2.34602602 C2.06233542,2.6296239 2.06233542,3.08941282 2.34592812,3.37300863 L2.85941838,2.85951318 L3.37290346,2.34602602 Z M8.28226359,8.28236876 L8.79575905,7.7688733 L8.79575905,7.7688733 L8.28226359,8.28236876 Z M2.46554731,15.4022657 L3.11149778,15.7340283 L3.11149778,15.7340283 L2.46554731,15.4022657 Z M28.6268937,29.6539483 C28.9105207,29.9375752 29.3702992,29.9375752 29.6538224,29.6539483 C29.9374493,29.3704251 29.9374493,28.9105428 29.6538224,28.6270196 L29.1404099,29.1404321 L28.6268937,29.6539483 Z M2.46708993,16.6008851 L1.82118199,16.9327515 L1.82118199,16.9327515 L2.46708993,16.6008851 Z M10.425618,6.16272949 C10.0622145,6.33240769 9.90516152,6.76454973 10.0748397,7.12795321 C10.2445076,7.4913567 10.6766496,7.64839929 11.0400531,7.47873146 L10.7328355,6.82073566 L10.425618,6.16272949 Z M29.533172,15.3999834 L28.8872827,15.7318497 L28.8872827,15.7318497 L29.533172,15.3999834 Z M25.2835402,21.3856113 C25.0038554,21.6730766 25.0101836,22.1327514 25.2976489,22.4124362 C25.5851142,22.692121 26.0448928,22.6857928 26.3245775,22.3983275 L25.804007,21.8919694 L25.2835402,21.3856113 Z M29.5342094,16.5977729 L28.8883202,16.2659066 L28.8883202,16.2660103 L29.5342094,16.5977729 Z M13.0656929,13.0657151 L13.5792092,12.5523027 C13.4429977,12.4160912 13.2582356,12.3395306 13.0656929,12.3395306 C12.8730466,12.3395306 12.6883882,12.4160912 12.5521767,12.5523027 L13.0656929,13.0657151 Z M18.9340939,18.9342198 L19.4476101,19.447736 C19.731237,19.1641091 19.731237,18.7043305 19.4476101,18.4207036 L18.9340939,18.9342198 Z M2.85941838,2.85951318 L2.34592812,3.37300863 L7.76877851,8.79585384 L8.28226359,8.28236876 L8.79575905,7.7688733 L3.37290346,2.34602602 L2.85941838,2.85951318 Z M2.46554731,15.4022657 L3.11149778,15.7340283 C4.67064708,12.6986807 6.60456985,10.4178077 8.7125383,8.86735189 L8.28226359,8.28236876 L7.85199926,7.69737525 C5.53742094,9.39980076 3.46585508,11.8655396 1.81959787,15.0703994 L2.46554731,15.4022657 Z M8.28226359,8.28236876 L7.76877851,8.79585384 L23.2040589,24.2311135 L23.7175751,23.7175973 L24.2309876,23.2041848 L8.79575905,7.7688733 L8.28226359,8.28236876 Z M23.7175751,23.7175973 L23.2040589,24.2311135 L28.6268937,29.6539483 L29.1404099,29.1404321 L29.6538224,28.6270196 L24.2309876,23.2041848 L23.7175751,23.7175973 Z M2.46708993,16.6008851 L1.82118199,16.9327515 C4.43637996,22.0224751 8.12895566,25.251299 12.1510117,26.5074945 C16.1835144,27.7669059 20.4610524,27.0142675 24.1477876,24.3025908 L23.7175751,23.7175973 L23.2872589,23.1326038 C19.9479512,25.5887673 16.1468939,26.2339304 12.5840251,25.1211045 C9.01062667,24.0050626 5.59099261,21.091714 3.11300202,16.2690188 L2.46708993,16.6008851 Z M2.46554731,15.4022657 L1.81959787,15.0703994 C1.51896442,15.6557041 1.52224512,16.3509739 1.82118199,16.9327515 L2.46708993,16.6008851 L3.11300202,16.2690188 C3.02632671,16.1003365 3.02661718,15.8992872 3.11149778,15.7340283 L2.46554731,15.4022657 Z M10.7328355,6.82073566 L11.0400531,7.47873146 C14.1457368,6.0286862 17.4996719,5.97897368 20.6202943,7.32619122 C23.7485935,8.67669733 26.6891222,11.4534195 28.8872827,15.7318497 L29.533172,15.3999834 L30.1790613,15.0681171 C27.8589017,10.5522971 24.6919072,7.50202124 21.1959512,5.99278156 C17.6924221,4.4802533 13.9053697,4.53803684 10.425618,6.16272949 L10.7328355,6.82073566 Z M25.804007,21.8919694 L26.3245775,22.3983275 C27.7659501,20.9165998 29.0696588,19.0914906 30.1802024,16.9295355 L29.5342094,16.5977729 L28.8883202,16.2660103 C27.836805,18.3130208 26.6145327,20.0172721 25.2835402,21.3856113 L25.804007,21.8919694 Z M29.533172,15.3999834 L28.8872827,15.7318497 C28.973595,15.9000133 28.9733875,16.1002328 28.8883202,16.2659066 L29.5342094,16.5977729 L30.1802024,16.9295355 C30.4805316,16.3448532 30.4782493,15.6504133 30.1790613,15.0681171 L29.533172,15.3999834 Z M15.9998934,20.1496452 L15.9998934,19.4234607 C14.1092201,19.4234607 12.5764521,17.8906926 12.5764521,16.0000193 L11.8502779,16.0000193 L11.1240934,16.0000193 C11.1240934,18.6928153 13.3070974,20.8758297 15.9998934,20.8758297 L15.9998934,20.1496452 Z M11.8502779,16.0000193 L12.5764521,16.0000193 C12.5764521,15.0544233 12.9588401,14.1996004 13.5792092,13.5792313 L13.0656929,13.0657151 L12.5521767,12.5523027 C11.6706302,13.4337869 11.1240934,14.6537769 11.1240934,16.0000193 L11.8502779,16.0000193 Z M13.0656929,13.0657151 L12.5521767,13.5792313 L18.4206814,19.447736 L18.9340939,18.9342198 L19.4476101,18.4207036 L13.5792092,12.5523027 L13.0656929,13.0657151 Z M18.9340939,18.9342198 L18.4206814,18.4207036 C17.8003123,19.0410726 16.9454894,19.4234607 15.9998934,19.4234607 L15.9998934,20.1496452 L15.9998934,20.8758297 C17.3461358,20.8758297 18.566022,20.3292203 19.4476101,19.447736 L18.9340939,18.9342198 Z" id="Shape" fill="#00EE91"></path>
    </g>
</svg>