<?xml version="1.0" encoding="UTF-8"?>
<svg width="33px" height="32px" viewBox="0 0 33 32" version="1.1" xmlns="http://www.w3.org/2000/svg" xmlns:xlink="http://www.w3.org/1999/xlink">
    <title>vaults-icon</title>
    <g id="vaults-icon" stroke="none" fill="none" transform="translate(0.0794, 0)" fill-rule="evenodd" stroke-width="1">
        <g id="SVG" transform="translate(1.9164, 1.7225)">
            <path d="M24.6110815,28.5549175 C24.2915421,28.5549175 24.0324153,28.295791 24.0324153,27.9762515 L24.0324153,16.8157908 C24.0324153,16.4962513 24.2915421,16.2372947 24.6110815,16.2372947 C24.9306208,16.2372947 25.1897489,16.4962513 25.1897489,16.8157908 L25.1897489,27.9762515 C25.1897489,28.295791 24.9306208,28.5549175 24.6110815,28.5549175 Z M24.6134572,27.3473551 C23.897336,27.3473551 23.2752279,27.2336563 22.7467916,27.006432 C22.2185249,26.7790381 21.8056516,26.4547478 21.5081728,26.0332205 C21.3518819,25.811766 21.2320769,25.567743 21.1490951,25.3013188 C21.0213133,24.8916703 21.3744515,24.5247844 21.8036151,24.5247844 C22.1905241,24.5247844 22.4880042,24.8385543 22.6780649,25.1755725 C22.7209981,25.2515968 22.770888,25.3226995 22.8275668,25.3887117 C23.0235668,25.6167844 23.2774339,25.7866505 23.5893369,25.8983111 C23.9012399,26.0101414 24.2402938,26.0659728 24.6064999,26.0659728 C25.0119059,26.0659728 25.3731916,26.0018263 25.6903552,25.8733657 C26.0075188,25.7449052 26.2573113,25.5641795 26.4400749,25.3311856 C26.6226688,25.098022 26.7139655,24.8283732 26.7139655,24.5219005 C26.7139655,24.2424096 26.6345488,24.0138266 26.4755428,23.8358145 C26.316367,23.6578025 26.1001722,23.5096573 25.8266208,23.3915482 C25.553239,23.2732694 25.2437132,23.1689062 24.8982102,23.0784577 L23.774985,22.7723247 C22.9896275,22.5605428 22.3773617,22.2483005 21.9380163,21.8357673 C21.498671,21.4234036 21.2790832,20.8891969 21.2790832,20.2336575 C21.2790832,19.6807847 21.4284161,19.1969791 21.726913,18.7824093 C22.0255798,18.3678397 22.4311556,18.0460945 22.9438102,17.817343 C23.456295,17.5884218 24.0342826,17.474046 24.677434,17.474046 C25.3341613,17.474046 25.9119791,17.5889309 26.4110577,17.8185309 C26.9099668,18.0481309 27.3023071,18.3625786 27.5879071,18.7618756 C27.7248525,18.9534636 27.8307424,19.1577792 27.9054092,19.3748217 C28.0418455,19.7714035 27.6919303,20.1260708 27.2726092,20.1260708 C26.8940153,20.1260708 26.5999319,19.8207844 26.3942592,19.5029421 C26.2948169,19.3491967 26.1624512,19.216834 25.9971664,19.1056825 C25.6396148,18.8650522 25.1892393,18.7449056 24.6458697,18.7449056 C24.2603181,18.7449056 23.9244874,18.8058276 23.6387178,18.9278397 C23.3527783,19.0498518 23.1321731,19.2168337 22.9767308,19.428446 C22.821458,19.6402278 22.7437361,19.8820452 22.7437361,20.1537302 C22.7437361,20.4549423 22.8369007,20.6994761 23.0233977,20.8869913 C23.2097249,21.0745063 23.4371177,21.2224828 23.7054086,21.3307494 C23.9736995,21.439016 24.2297732,21.5252208 24.4736278,21.5895359 L25.4010223,21.8359372 C25.7071555,21.9123008 26.0217724,22.0163248 26.3450449,22.1480096 C26.6684874,22.2796945 26.9680028,22.4495603 27.2437603,22.6574391 C27.5195178,22.8654876 27.7423313,23.1229184 27.9123677,23.43007 C28.0822343,23.7370518 28.1672522,24.106313 28.1672522,24.5376828 C28.1672522,25.0803737 28.0275911,25.5635018 27.74827,25.9874048 C27.4689488,26.4113078 27.0643905,26.7439127 26.5345967,26.9852218 C26.004633,27.2267007 25.3643663,27.3473551 24.6134572,27.3473551 Z" id="Vector" fill="#CC38FF" fill-rule="nonzero"></path>
            <path d="M17.9545497,27.1515226 L5.4303032,27.1515226 C2.43123159,27.1515226 0,24.7202746 0,21.7212204 L0,5.43029577 C0,2.43122447 2.43123159,0 5.4303032,0 L21.7211449,0 C24.7203692,0 27.1514477,2.43122447 27.1514477,5.43029577 L27.1514477,13.5757661" id="Vector" stroke="#CC38FF" stroke-width="1.4" stroke-linecap="round"></path>
            <path d="M17.5331926,9.07440298 L21.9302112,9.07440298 L21.9302112,13.4713186 M21.4660892,9.55805606 L16.2153261,14.7940724 C15.2429625,15.7638397 13.668887,15.7626516 12.6978301,14.7916287 C11.7258059,13.8196045 10.1498467,13.8196045 9.17783933,14.7916287 L5.2218302,18.7476214" id="Vector" stroke="#CC38FF" stroke-width="1.4" stroke-linecap="round" stroke-linejoin="round"></path>
        </g>
    </g>
</svg>