<?xml version="1.0" encoding="UTF-8"?>
<svg width="90px" height="90px" viewBox="0 0 90 90" version="1.1" xmlns="http://www.w3.org/2000/svg" xmlns:xlink="http://www.w3.org/1999/xlink">
    <title>hyperlane</title>
    <g id="hyperlane" stroke="none" fill="none" fill-rule="evenodd" stroke-width="1">
        <g id="Page-1">
            <circle id="Oval" fill="#3A60BB" fill-rule="nonzero" cx="45" cy="45" r="45"></circle>
            <g id="Group" transform="translate(17, 19)" fill-rule="nonzero">
                <path d="M28.6157152,0 L39.2379227,0 C40.6871881,0 41.9837363,0.841507828 42.4896973,2.11040838 L51.8132511,25.4963451 C51.8852127,25.6766827 51.8860796,25.8751036 51.8157282,26.0560605 L51.76346,26.1904467 L51.7629646,26.1918091 L42.47855,50.0651157 C41.9800205,51.3468009 40.6766602,52.1999365 39.2172383,52.1999365 L28.5965171,52.1999365 C27.9992726,52.1999365 27.5806318,51.6491388 27.7775664,51.1222459 L37.3509422,25.4963451 L27.8009756,1.08888 C27.5940084,0.560021372 28.0130209,0 28.6157152,0 Z" id="Path" fill="#D631B9"></path>
                <path d="M0.887356435,0 L11.5096395,0 C12.9587934,0 14.2553417,0.841507828 14.7613027,2.11040838 L24.0848564,25.4963451 C24.1568181,25.6766827 24.1576851,25.8751036 24.0873336,26.0560605 L24.0350654,26.1904467 L24.03457,26.1918091 L14.7501554,50.0651157 C14.2517498,51.3468009 12.9482656,52.1999365 11.4888685,52.1999365 L0.868191848,52.1999365 C0.270933732,52.1999365 -0.147662571,51.6491388 0.0491749447,51.1222459 L9.62260954,25.4963451 L0.0726172244,1.08888 C-0.134311891,0.560021372 0.284717916,0 0.887356435,0 Z" id="Path" fill="#D631B9"></path>
                <polygon id="Path" fill="#D631B9" points="35.8235223 20.5091925 20.8284991 20.5091925 20.8284991 31.8221576 35.8235223 31.8221576 38.27381 26.0040401"></polygon>
                <path d="M34.7457078,0 L45.3680392,0 C46.8171807,0 48.1137289,0.841507828 48.6196899,2.11040838 L57.9433675,25.4963451 C58.0152053,25.6766827 58.0160723,25.8751036 57.9457208,26.0560605 L57.8934526,26.1904467 L57.8929572,26.1918091 L48.6085426,50.0651157 C48.110137,51.3468009 46.8066528,52.1999365 45.3472309,52.1999365 L34.7265097,52.1999365 C34.1292652,52.1999365 33.7107482,51.6491388 33.907559,51.1222459 L43.4809348,25.4963451 L33.9309682,1.08888 C33.724001,0.560021372 34.1431374,0 34.7457078,0 Z" id="Path" fill="#FFFFFF"></path>
                <path d="M7.01737506,0 L17.6396446,0 C19.0887861,0 20.3854582,0.841507828 20.8912953,2.11040838 L30.2149728,25.4963451 C30.2868107,25.6766827 30.2876777,25.8751036 30.2173262,26.0560605 L30.165058,26.1904467 L30.1645626,26.1918091 L20.880148,50.0651157 C20.3817424,51.3468009 19.0782582,52.1999365 17.6188364,52.1999365 L6.99821419,52.1999365 C6.40094493,52.1999365 5.98235357,51.6491388 6.17918911,51.1222459 L15.7526641,25.4963451 L6.20263548,1.08888 C5.9957055,0.560021372 6.41473035,0 7.01737506,0 Z" id="Path" fill="#FFFFFF"></path>
                <polygon id="Path" fill="#FFFFFF" points="41.9536388 20.5091925 26.9584918 20.5091925 26.9584918 31.8221576 41.9536388 31.8221576 44.4038026 26.0040401"></polygon>
            </g>
        </g>
    </g>
</svg>