<?xml version="1.0" encoding="UTF-8"?>
<svg xmlns="http://www.w3.org/2000/svg" xmlns:xlink="http://www.w3.org/1999/xlink" width="85px" height="90px" viewBox="0 0 85 90" version="1.1">
<defs>
<filter id="alpha" filterUnits="objectBoundingBox" x="0%" y="0%" width="100%" height="100%">
  <feColorMatrix type="matrix" in="SourceGraphic" values="0 0 0 0 1 0 0 0 0 1 0 0 0 0 1 0 0 0 1 0"/>
</filter>
<mask id="mask0">
  <g filter="url(#alpha)">
<rect x="0" y="0" width="85" height="90" style="fill:rgb(0%,0%,0%);fill-opacity:0.301961;stroke:none;"/>
  </g>
</mask>
<clipPath id="clip1">
  <rect x="0" y="0" width="85" height="90"/>
</clipPath>
<g id="surface5" clip-path="url(#clip1)">
<path style=" stroke:none;fill-rule:nonzero;fill:rgb(100%,0%,57.647061%);fill-opacity:1;" d="M 30.8125 34.464844 C 30.8125 32.558594 32.351562 30.96875 34.265625 30.96875 L 64.492188 30.96875 C 66.40625 30.96875 68 32.558594 68 34.464844 L 68 64.589844 C 68 66.492188 66.40625 68.082031 64.492188 68.082031 L 34.265625 68.082031 C 32.328125 68.082031 30.757812 66.519531 30.757812 64.589844 L 30.757812 34.464844 Z M 30.8125 34.464844 "/>
</g>
<mask id="mask1">
  <g filter="url(#alpha)">
<rect x="0" y="0" width="85" height="90" style="fill:rgb(0%,0%,0%);fill-opacity:0.501961;stroke:none;"/>
  </g>
</mask>
<clipPath id="clip2">
  <rect x="0" y="0" width="85" height="90"/>
</clipPath>
<g id="surface8" clip-path="url(#clip2)">
<path style=" stroke:none;fill-rule:nonzero;fill:rgb(100%,0%,57.647061%);fill-opacity:1;" d="M 61.09375 57.707031 C 61.09375 59.664062 59.5 61.199219 57.585938 61.199219 L 27.414062 61.199219 C 25.476562 61.199219 23.90625 59.636719 23.90625 57.707031 L 23.90625 27.636719 C 23.90625 25.675781 25.5 24.140625 27.414062 24.140625 L 57.585938 24.140625 C 59.554688 24.140625 61.09375 25.730469 61.09375 27.636719 Z M 61.09375 57.707031 "/>
</g>
<mask id="mask2">
  <g filter="url(#alpha)">
<rect x="0" y="0" width="85" height="90" style="fill:rgb(0%,0%,0%);fill-opacity:0.898039;stroke:none;"/>
  </g>
</mask>
<clipPath id="clip3">
  <rect x="0" y="0" width="85" height="90"/>
</clipPath>
<g id="surface11" clip-path="url(#clip3)">
<path style=" stroke:none;fill-rule:nonzero;fill:rgb(100%,0%,57.647061%);fill-opacity:1;" d="M 54.1875 50.875 C 54.1875 52.78125 52.648438 54.371094 50.734375 54.371094 L 20.507812 54.371094 C 18.570312 54.371094 17 52.804688 17 50.875 L 17 20.753906 C 17 18.847656 18.59375 17.257812 20.507812 17.257812 L 50.734375 17.257812 C 52.648438 17.257812 54.242188 18.847656 54.242188 20.753906 L 54.242188 50.875 Z M 54.1875 50.875 "/>
</g>
</defs>
<g id="surface1">
<path style=" stroke:none;fill-rule:evenodd;fill:rgb(100%,100%,100%);fill-opacity:1;" d="M 85 42.671875 C 85 19.28125 65.972656 0.316406 42.5 0.316406 C 19.027344 0.316406 0 19.28125 0 42.671875 C 0 66.0625 19.027344 85.023438 42.5 85.023438 C 65.972656 85.023438 85 66.0625 85 42.671875 Z M 85 42.671875 "/>
<use xlink:href="#surface5" mask="url(#mask0)"/>
<use xlink:href="#surface8" mask="url(#mask1)"/>
<use xlink:href="#surface11" mask="url(#mask2)"/>
</g>
</svg>
