<?xml version="1.0" encoding="UTF-8"?>
<svg width="90px" height="90px" viewBox="0 0 90 90" version="1.1" xmlns="http://www.w3.org/2000/svg" xmlns:xlink="http://www.w3.org/1999/xlink">
    <title>orbiter</title>
    <defs>
        <linearGradient x1="-33.2919074%" y1="62.3883645%" x2="50.6151719%" y2="144.676009%" id="linearGradient-1">
            <stop stop-color="#EF2F2D" offset="0%"></stop>
            <stop stop-color="#89272D" offset="100%"></stop>
        </linearGradient>
    </defs>
    <g id="orbiter" stroke="none" fill="none" fill-rule="evenodd" stroke-width="1">
        <g id="Page-1">
            <circle id="Oval" fill="#FFFFFF" fill-rule="nonzero" cx="45" cy="45" r="45"></circle>
            <g id="icon" transform="translate(13, 14)">
                <path d="M42.9559461,33.0965305 C42.7307572,30.4083945 42.3298352,25.6147729 42.2094926,22.7134722 C42.1175047,20.0980061 40.9984839,17.6204511 39.0894885,15.8072593 C37.180493,13.9937445 34.6312093,12.9867029 31.9836732,13.0001326 C29.3374561,12.9886407 26.79081,13.9966513 24.883463,15.8098431 C22.9764458,17.6230349 21.8587438,20.099298 21.7674153,22.7134722 C21.6319063,25.7927331 21.2161476,30.9690823 21.0041469,33.507034 C20.9893101,33.6930686 21.0143677,33.8800722 21.0780009,34.0557716 C21.1413044,34.231471 21.2415349,34.3916674 21.3720983,34.5263488 C21.5029915,34.6607071 21.6609204,34.7663205 21.8359941,34.8360835 C22.0110678,34.9058465 22.199,34.9381442 22.3872619,34.9307157 C24.2533956,34.8519094 27.6948627,34.7385445 31.8557475,34.7572772 C36.1237865,34.7763328 39.6912012,34.9103682 41.6084393,34.9988638 C41.7976903,35.0066153 41.9862819,34.9746406 42.1623447,34.9048776 C42.3377481,34.8351146 42.4966662,34.7291782 42.627889,34.5941739 C42.7587821,34.4591696 42.8596721,34.2983272 42.9229755,34.1219818 C42.986279,33.9453135 43.0110069,33.757987 42.9955108,33.5713064 C42.982982,33.4217681 42.9697937,33.2631865 42.9559461,33.0965305 Z M28.6312266,18.8109435 C29.6196841,18.1582074 30.7815666,17.8103614 31.9701553,17.8103614 L31.9741118,17.8103614 C33.5669196,17.8119763 35.0941159,18.4385513 36.2197309,19.5521753 C37.3456755,20.6661223 37.9780509,22.1760388 37.9780509,23.7505508 C37.9780509,24.9255404 37.6255956,26.0740459 36.9648655,27.0507277 C36.3047949,28.0277325 35.3657933,28.7889889 34.2678737,29.2385726 C33.1696243,29.6881563 31.9609236,29.8057198 30.7954142,29.5764063 C29.6295752,29.3467698 28.5586914,28.7809144 27.7182718,27.9502181 C26.8778522,27.1191988 26.305813,26.0604808 26.07403,24.9080996 C25.8425766,23.7560414 25.9616004,22.5616731 26.4169238,21.4761481 C26.8719175,20.3906231 27.6424395,19.4630337 28.6312266,18.8109435 Z" id="Vector-4" fill="url(#linearGradient-1)"></path>
                <path d="M32.0869762,20 C32.469599,20.400084 32.6804394,20.9128447 32.6811627,21.4435683 C32.6742914,21.7473056 32.6019619,22.046797 32.4681524,22.3247329 C32.3339813,22.6029954 32.1415849,22.8544767 31.9007278,23.0648066 C31.6602324,23.2748099 31.3763392,23.4397425 31.0656842,23.550133 C30.7553908,23.6601969 30.4237602,23.7137592 30.0903214,23.7072272 C29.7058903,23.7091868 29.3254374,23.634069 28.9760861,23.4867727 C28.6270964,23.3394765 28.317888,23.1235945 28.0712445,22.8548033 C28.0249537,23.0670928 28.0014466,23.2826483 28,23.4991835 C28,25.4326506 29.7912391,27 32.0009041,27 C34.2109308,27 36,25.4326506 36,23.4991835 C36,21.5657164 34.25686,20.0307003 32.0869762,20 Z" id="Vector-3" fill="#222222" fill-rule="nonzero"></path>
                <path d="M37.3648566,16.9992988 C37.3196548,17.0023007 37.274453,16.9956297 37.2318159,16.9799528 C37.1891787,16.9646095 37.1497474,16.9399268 37.1160865,16.9082395 C37.0824256,16.8765522 37.0551763,16.8381939 37.0356209,16.7954994 C37.0163861,16.7524714 37.0051658,16.7057744 37.0032423,16.6584102 C36.9734284,15.8598905 37.1106366,14.2241592 39.0806009,12.4383969 C40.4385779,11.2095638 42.3287178,10.7655415 44.7067805,11.116103 C44.7523028,11.1226739 44.7959017,11.1388178 44.8353331,11.1635672 C44.8744438,11.1882833 44.9084253,11.2211047 44.935354,11.2600633 C44.9622828,11.2989887 44.9815176,11.3432508 44.9914555,11.3901147 C45.0017141,11.4370118 45.0026758,11.4855434 44.9946613,11.5328409 L44.9946613,11.5328409 C44.9786323,11.6211317 44.9315071,11.6998829 44.8629029,11.7533177 C44.7939782,11.8067525 44.7087039,11.8309683 44.6234297,11.8210618 C42.4585527,11.4997193 40.7594785,11.885337 39.5649974,12.9643392 C37.8508559,14.5220197 37.698901,15.9185954 37.7101213,16.6350617 C37.7120448,16.7271216 37.6796662,16.8165131 37.6203589,16.8842239 C37.560731,16.951601 37.4783419,16.9922942 37.3908236,16.9972975 L37.3648566,16.9992988 Z" id="Vector-2" fill="#222222" fill-rule="nonzero"></path>
                <path d="M44,12 C44.5522291,12 45,11.5522708 45,11 C45,10.4477292 44.5522291,10 44,10 C43.4477709,10 43,10.4477292 43,11 C43,11.5522708 43.4477709,12 44,12 Z" id="Ellipse-2" fill="#222222" fill-rule="nonzero"></path>
                <path d="M26.6344227,16.9991944 C26.6796237,17.0023927 26.7248246,16.995996 26.767461,16.9812836 C26.8100974,16.9665711 26.8495281,16.9435429 26.8831884,16.9131584 C26.9168487,16.8830938 26.9440975,16.8463127 26.9636525,16.8050538 C26.982887,16.7641148 26.9941071,16.7196575 26.9963511,16.6742408 C27.0277674,15.8900024 26.8979348,14.1027575 24.9187089,12.3792561 C23.5626795,11.2009474 21.6706498,10.7751814 19.2926294,11.1113293 C19.2474284,11.117886 19.2038303,11.1335259 19.1647203,11.1573218 C19.1256102,11.1811176 19.0916293,11.2125895 19.0647011,11.2498504 C19.0380934,11.2871113 19.0188589,11.3294576 19.0086006,11.3742987 C18.9983422,11.4191397 18.9973805,11.4656119 19.0050742,11.5109327 C19.0207824,11.5955933 19.0679068,11.6711067 19.1368303,11.7223444 C19.2054332,11.7736142 19.2910265,11.7968023 19.3759787,11.7873032 C21.5408172,11.479173 23.2417846,11.8489356 24.4346416,12.8835418 C26.1542023,14.3774968 26.3026283,15.9347794 26.2801881,16.640658 C26.2776235,16.7295724 26.3096809,16.8156084 26.3689871,16.8811748 C26.428614,16.9467412 26.5113221,16.9864009 26.5994801,16.9915183 L26.6344227,16.9991944 Z" id="Vector-1" fill="#222222" fill-rule="nonzero"></path>
                <path d="M20.0001627,12 C20.5521562,12 21,11.5522708 21,11 C21,10.4477292 20.5521562,10 20.0001627,10 C19.4478438,10 19,10.4477292 19,11 C19,11.5522708 19.4478438,12 20.0001627,12 Z" id="Ellipse-1" fill="#222222" fill-rule="nonzero"></path>
                <path d="M64,47.5636875 C64,44.4397917 56.2171447,39.4775312 56.2171447,39.4775312 L56.1270459,39.4510521 C56.2563604,38.9253437 56.379193,38.4290208 56.4958678,37.9582083 L56.496516,37.9553021 C57.5371901,33.7525417 58.0784314,31.5670417 58.15427,28.516125 C58.3419219,20.7654792 56.3973424,14.2044583 51.509966,8.45205313 C46.9661319,3.10329375 39.7329444,0 32.0064819,0 C23.7941987,0 17.4649165,3.14666146 12.7673311,8.35966667 C8.06961595,13.5728333 5.71229947,19.2267813 5.8473181,28.4292604 C5.88669584,31.0045208 6.46806028,35.3277292 7.72267056,39.2040208 L7.63451629,39.2305 C7.63451629,39.2305 0,44.0984688 0,47.4713333 C0,48.4688229 4.12574947,49.7340104 12.6360395,50.1353958 L7.88954789,57.2847708 C7.7020256,57.8934688 7.81831146,58.7307917 8.32652731,59.0889063 C8.82754821,59.4205417 9.40074542,59.6255938 9.99743964,59.686625 C10.8994977,59.7131042 11.1807811,59.4508958 11.5127208,58.849625 L16.2780749,50.5086875 C21.3414357,50.7105104 24.5632799,50.8180417 30.3561821,50.8293437 L30.3561821,60.3747604 C30.3898882,60.949875 30.6316642,62 32.167882,62 C33.5627937,62 33.8029493,61.01575 33.8029493,60.3747604 L33.8029493,50.8348333 C35.2558743,50.8319271 36.5422136,50.8348333 37.7342408,50.8374167 C41.2892562,50.8448438 44.0045374,50.8506563 47.7893372,50.7011458 L52.7833414,58.7572708 C52.8744126,59.0172187 53.0474801,59.2400313 53.2762923,59.3914792 C53.5054286,59.54325 53.7776697,59.6149375 54.0512073,59.5962083 C54.5386485,59.6033125 55.0179874,59.4725312 55.4350997,59.2190417 C55.9977313,58.9665208 55.9977313,58.0368437 55.7708637,57.1943542 L51.0675741,50.3201042 C59.2814779,49.6339063 64,48.3651667 64,47.5636875 Z M14.7139848,46.6475729 C13.949765,46.635625 13.22152,46.3191667 12.6895155,45.767625 C12.1574461,45.2160833 11.8650138,44.4746667 11.8765192,43.7064479 C11.8765192,42.0812083 13.1460055,40.9480937 14.7139848,40.9480937 C16.2816399,40.9480937 17.5514503,42.0792708 17.5514503,43.7064479 C17.5624696,44.4743438 17.2698104,45.2157604 16.7376438,45.7669792 C16.2058013,46.3185208 15.4778804,46.6353021 14.7139848,46.6475729 Z M30.3503484,46.3582396 C30.8436234,46.6705 31.4182466,46.8277604 32.0006482,46.8096771 C32.765192,46.7977292 33.4931129,46.4812708 34.0252795,45.9297292 C34.557122,45.3781875 34.8497812,44.6367708 34.8381138,43.8685521 C34.8384497,43.2824583 34.664398,42.7099271 34.3386809,42.2239375 C34.013288,41.7379479 33.5508021,41.3607812 33.0105331,41.1405521 C32.4702641,40.9203229 31.8771674,40.8673646 31.3070815,40.9881354 C30.7366715,41.1092292 30.2152001,41.3982396 29.8094312,41.819 C29.4036623,42.2397604 29.1320694,42.7725729 29.0293307,43.3493021 C28.9265921,43.9260312 28.9972452,44.5205208 29.2328634,45.0565625 C29.4681575,45.5926042 29.8573975,46.0459792 30.3503484,46.3582396 Z M49.2860152,46.9737188 C48.7032896,46.9918021 48.1286663,46.8345417 47.6353913,46.5222813 C47.1424404,46.2096979 46.7532005,45.7566458 46.5175822,45.2206042 C46.2822881,44.6845625 46.2116351,44.0900729 46.3143737,43.5133438 C46.4171123,42.9362917 46.6887052,42.4038021 47.0944742,41.9830417 C47.5002431,41.5626042 48.0217145,41.2729479 48.5918004,41.1525 C49.1622103,41.0314063 49.7556312,41.0843646 50.2955761,41.3045938 C50.8358451,41.5248229 51.2983309,41.9019896 51.624048,42.3879792 C51.9494409,42.8739688 52.1231567,43.4465 52.1231567,44.0325938 C52.134176,44.8008125 51.8418409,45.5419063 51.3096743,46.093125 C50.7778318,46.6446667 50.0499109,46.9614479 49.2860152,46.9737188 Z M33.0879922,37.0414479 C40.7596824,37.0382187 48.4009075,37.0353125 53.6386323,38.3763854 C53.714795,38.0780104 53.8016529,37.7515417 53.8949927,37.3998854 C54.5017015,35.11525 55.3913466,31.7659583 55.5459407,28.1521979 C56.1157025,14.9035729 46.9097391,2.32273958 31.9990277,2.32273958 C17.0879922,2.32273958 8.18023011,14.8942083 8.60781073,28.1521979 C8.69969211,31.0045208 9.4161076,34.6867396 10.3293794,38.3763854 C15.7008589,36.9846146 22.1785772,37.0088333 29.1291525,37.0346667 C30.0774591,37.0382187 31.0345163,37.0417708 31.9990277,37.0417708 C32.3616918,37.0417708 32.7250041,37.0414479 33.0879922,37.0414479 Z" id="Vector" fill="#222222"></path>
            </g>
        </g>
    </g>
</svg>