<?xml version="1.0" encoding="UTF-8"?>
<svg width="90px" height="90px" viewBox="0 0 90 90" version="1.1" xmlns="http://www.w3.org/2000/svg" xmlns:xlink="http://www.w3.org/1999/xlink">
    <title>rhinofi</title>
    <g id="rhinofi" stroke="none" fill="none" fill-rule="evenodd" stroke-width="1">
        <g id="Page-1">
            <circle id="Oval" fill="#FFFFFF" fill-rule="nonzero" cx="45" cy="45" r="45"></circle>
            <g id="Group" transform="translate(9, 29.17)" fill="#E96C19" fill-rule="nonzero">
                <path d="M16.3004452,32.238806 L0,32.238806 L0,24.9025826 C0,11.1492957 11.1161393,0 24.8284792,0 L30.259983,0 C32.7452167,0 34.760034,2.02073178 34.760034,4.51344024 L34.760034,6.74148755 C34.760034,11.7427218 38.802311,15.7970022 43.7884792,15.7970022 C45.7831096,15.7970022 47.399898,17.4187184 47.399898,19.4192203 L47.399898,30.0942424 C47.399898,31.2785994 46.4427528,32.238806 45.2617162,32.238806 L33.8020731,32.238806 C33.3163636,32.238806 32.9226168,31.843884 32.9226168,31.3567249 L32.9226168,24.99257 C32.9226168,20.3888142 29.2016992,16.6567092 24.6115208,16.6567092 L23.2647069,16.6567092 C19.4184673,16.6567092 16.3004452,19.7840375 16.3004452,23.6417363 L16.3004452,32.238806 Z" id="Path"></path>
                <path d="M60.7803568,9.08189525e-06 L72,9.08189525e-06 L72,3.97936497 C72,13.9839809 63.9138148,22.0943619 53.9390314,22.0943619 L52.1256754,22.0943619 C51.1322345,22.0943619 50.3267969,21.2722042 50.3267969,20.2757573 C50.3267969,15.3398253 46.3373322,11.2680996 41.4160068,11.2680996 C39.9397111,11.2680996 38.7427698,10.0677085 38.7427698,8.58692477 L38.7427698,1.87802607 C38.7427698,0.840825072 39.5812404,9.08189525e-06 40.6152591,9.08189525e-06 L49.7240442,9.08189525e-06 C50.0568224,9.08189525e-06 50.3267969,0.270636224 50.3267969,0.604475191 L50.3267969,5.43654743 C50.3267969,8.33183092 52.6668479,10.6789275 55.5535769,10.6789275 L56.0074766,10.6789275 C58.6433985,10.6789275 60.7803568,8.53567285 60.7803568,5.89182236 L60.7803568,9.08189525e-06 Z" id="Path"></path>
            </g>
        </g>
    </g>
</svg>