<?xml version="1.0" encoding="UTF-8"?>
<svg width="90px" height="90px" viewBox="0 0 90 90" version="1.1" xmlns="http://www.w3.org/2000/svg" xmlns:xlink="http://www.w3.org/1999/xlink">
    <title>starkgate</title>
    <g id="starkgate" stroke="none" fill="none" fill-rule="evenodd" stroke-width="1">
        <g id="Page-1">
            <circle id="Oval" fill="#000000" fill-rule="nonzero" cx="45" cy="45" r="45"></circle>
            <path d="M67.6922706,25.6893273 C66.9936248,24.6760175 66.1794611,23.7322329 65.2648126,22.8819477 C62.0168611,19.8627959 57.5385651,18 52.5831643,18 L20,18 L23.9750812,24.9876822 C24.8517511,26.5292237 26.4784961,27.4802006 28.238957,27.4802006 L37.7786771,27.4802006 L52.5839555,27.4650169 C54.7289486,27.4650169 56.6658512,28.2721486 58.0639341,29.5779437 C59.4699292,30.8781449 60.3371045,32.6786078 60.3371045,34.6660696 C60.3371045,38.6481854 56.8676119,41.8735154 52.5839555,41.8735154 L47.8904481,41.8583317 L26.1105796,41.8583317 L30.0856608,48.8460139 C30.9623307,50.3875555 32.5890757,51.3385323 34.3495366,51.3385323 L36.2809007,51.3385323 C37.1077239,51.3385323 37.7778859,52.0154041 37.7778859,52.8505057 L37.7778859,76 L45.0167429,70.3548734 C46.4789145,69.2145003 47.335804,67.4539943 47.335804,65.5872027 L47.335804,52.8505057 C47.335804,52.0154041 48.005966,51.3385323 48.8327892,51.3385323 L52.5839555,51.3385323 C59.7112508,51.3385323 65.8629737,47.4746893 68.7548769,41.8735154 C69.8839455,39.6918625 70.516129,37.2480917 70.516129,34.6660696 C70.516129,31.3592273 69.4804242,28.2833365 67.6922706,25.6893273 Z" id="Path" fill="#FFFFFF" fill-rule="nonzero"></path>
        </g>
    </g>
</svg>