<svg class="Logo___StyledParadexLogoText-qr0or9-1 jECvji" width="75" height="15" viewBox="0 0 125 16" fill="none" xmlns="http://www.w3.org/2000/svg"><path fill-rule="evenodd" clip-rule="evenodd" d="M125 0H121.392L118.023 5.15901L114.654 0H111.047L116.219 7.92151L111.047 15.843H114.654L118.023 10.684L121.392 15.843H125L119.827 7.92151L125 0ZM94.0501 15.843H104.797V12.9268H94.0501V15.843ZM94.0501 2.91627H104.775V0H94.0501V2.91627ZM94.0407 9.37965H100.709V6.46337H94.0407V9.37965ZM88.2267 7.92151C88.2267 10.1105 87.3224 12.0904 85.8592 13.5224C84.396 14.9566 82.3762 15.843 80.1451 15.843H75.8721V12.9272H80.1451C82.9658 12.9272 85.2519 10.6864 85.2519 7.92151C85.2519 6.53907 84.6799 5.2882 83.7557 4.38239C82.8316 3.47658 81.5555 2.91584 80.1451 2.91584H75.8721V0H80.1451C84.6073 0 88.2267 3.54559 88.2267 7.92151ZM69.7674 15.8424L63.9375 0H60.3405L60.3407 0.000646502H60.3358L54.5058 15.843H58.103L62.1368 4.88125L66.1705 15.8424H69.7674ZM44.8335 10.0092L48.6919 15.843H45.0377L41.3463 10.2572H36.3372V7.34568H43.1184C44.4492 7.34568 45.5274 6.35144 45.5274 5.12645C45.5274 4.5161 45.2595 3.96183 44.8225 3.56285C44.3877 3.15955 43.786 2.91153 43.1184 2.91153H36.3372V0H43.1184C44.66 0 46.0501 0.573679 47.0602 1.50321C47.3435 1.76417 47.5961 2.05532 47.8135 2.36589C48.369 3.16386 48.6919 4.11065 48.6919 5.12645C48.6919 5.92226 48.4942 6.67279 48.1429 7.34568C47.4885 8.60087 46.2938 9.57569 44.8335 10.0092ZM30.2326 15.8424L24.4026 0H20.8056L20.8059 0.000646502H20.8009L14.9709 15.843H18.5681L22.602 4.88125L26.6356 15.8424H30.2326ZM11.4774 2.36542C11.2602 2.05378 11.0074 1.7635 10.7232 1.5019C9.71419 0.57324 8.32281 0 6.7832 0H0.426243H0V2.91149H6.7832C7.44968 2.91149 8.05138 3.15972 8.48575 3.56151C8.92253 3.96157 9.19198 4.51539 9.19198 5.12681C9.19198 6.35179 8.11397 7.34407 6.7832 7.34407H2.96942H0V10.2286V15.843H2.96942V10.2556H6.7832C8.99764 10.2556 10.909 9.06702 11.8074 7.34407C12.1583 6.67291 12.3547 5.9211 12.3547 5.12681C12.3547 4.10951 12.0329 3.16338 11.4774 2.36542Z" fill="white"></path></svg>
