<?xml version="1.0" encoding="UTF-8"?>
<svg width="2455px" height="226px" viewBox="0 0 2455 226" version="1.1" xmlns="http://www.w3.org/2000/svg" xmlns:xlink="http://www.w3.org/1999/xlink">
    <title>Group</title>
    <g id="New-Logos" stroke="none" stroke-width="1" fill="none" fill-rule="evenodd">
        <g id="Group" transform="translate(0.5739, -0.0365)">
            <path d="M184.353103,32.9766841 C181.651354,29.0952991 178.505656,25.492968 174.966747,22.233112 C162.409325,10.6777469 145.107988,3.54919013 125.942064,3.54919013 L0,3.54919013 L15.3606445,30.28762 C18.7600274,36.1984874 25.0514227,39.8388713 31.8628728,39.8388713 L68.7233459,39.8388713 L125.954748,39.77545 C134.250257,39.77545 141.733973,42.8577263 147.13747,47.8680108 C152.566335,52.8402426 155.927665,59.7404826 155.927665,67.3383571 C155.927665,82.5721589 142.520398,94.9266327 125.954748,94.9266327 L107.81625,94.8632114 L23.6307851,94.8632114 L38.9914296,121.601641 C42.3908125,127.512509 48.6822077,131.152893 55.4936579,131.152893 L62.9520055,131.152893 C66.1484402,131.152893 68.7360302,133.740483 68.7360302,136.936917 L68.7360302,225.536506 L98.2776826,202.730198 C102.945492,199.127867 105.672609,193.559475 105.672609,187.673976 L105.672609,136.949602 C105.672609,133.753167 108.260199,131.165577 111.456634,131.165577 L125.954748,131.165577 C153.504971,131.165577 177.287967,116.375724 188.462804,94.939317 C192.826191,86.5930708 195.274254,77.2320835 195.274254,67.3510413 C195.274254,54.6921452 191.266027,42.9211476 184.365787,33.0020527 L184.353103,32.9766841 Z" id="Path" fill="#000000"></path>
            <polygon id="Vector" fill="#000000" fill-rule="nonzero" points="1626.85225 3.54919013 1581.04937 3.54919013 1538.29071 67.718885 1495.53205 3.54919013 1449.72917 3.54919013 1515.39561 102.080558 1449.72917 200.62461 1495.53205 200.62461 1538.29071 136.442231 1581.04937 200.62461 1626.85225 200.62461 1561.18581 102.080558"></polygon>
            <path d="M1233.9952,200.62461 L1370.40178,200.62461 L1370.40178,164.347613 L1233.9952,164.347613 L1233.9952,200.62461 Z M1233.9952,39.826187 L1370.12273,39.826187 L1370.12273,3.54919013 L1233.9952,3.54919013 L1233.9952,39.826187 L1233.9952,39.826187 Z M1233.86836,120.219056 L1318.51046,120.219056 L1318.51046,83.9420595 L1233.86836,83.9420595 L1233.86836,120.219056 Z" id="Vector1" fill="#000000"></path>
            <path d="M1160.07131,102.080558 C1160.07131,129.313674 1148.59205,153.933832 1130.02228,171.755224 C1111.45252,189.601984 1085.80494,200.62461 1057.49366,200.62461 L1003.25574,200.62461 L1003.25574,164.347613 L1057.49366,164.347613 C1093.30134,164.347613 1122.31025,136.467599 1122.31025,102.080558 C1122.31025,84.8806951 1115.05485,69.3297866 1103.32191,58.0534754 C1091.58896,46.7898483 1075.39116,39.8135028 1057.49366,39.8135028 L1003.25574,39.8135028 L1003.25574,3.53650587 L1057.49366,3.53650587 C1114.1289,3.53650587 1160.07131,47.6396941 1160.07131,102.080558 Z" id="Vector2" fill="#000000" fill-rule="nonzero"></path>
            <polygon id="Vector3" fill="#000000" fill-rule="nonzero" points="925.767569 200.611926 851.767569 3.54919013 806.104217 3.54919013 806.116901 3.54919013 806.05348 3.54919013 732.05348 200.62461 777.704148 200.62461 828.910525 64.268765 880.116901 200.611926"></polygon>
            <path d="M609.269798,128.057932 L658.243744,200.62461 L611.857388,200.62461 L565.001714,131.140208 L501.415495,131.140208 L501.415495,94.9266327 L587.490915,94.9266327 C604.386356,94.9266327 618.072677,82.5594747 618.072677,67.3256728 C618.072677,59.7277983 614.673294,52.8402426 609.130271,47.8806951 C603.612616,42.8577263 595.976688,39.77545 587.5036,39.77545 L501.42818,39.77545 L501.42818,3.5618744 L587.5036,3.5618744 C607.07542,3.5618744 624.719232,10.7031154 637.543024,22.2584805 C641.132671,25.5056523 644.34179,29.1206677 647.106959,32.9893684 C654.15941,42.9211476 658.256428,54.6921452 658.256428,67.3256728 C658.256428,77.2193993 655.744943,86.555018 651.292767,94.9266327 C642.984573,110.540963 627.826877,122.66712 609.282482,128.057932 L609.269798,128.057932 Z" id="Vector4" fill="#000000" fill-rule="nonzero"></path>
            <polygon id="Vector5" fill="#000000" fill-rule="nonzero" points="423.940007 200.611926 349.940007 3.54919013 304.289338 3.54919013 304.289338 3.54919013 304.225917 3.54919013 230.225917 200.62461 275.876586 200.62461 327.082962 64.268765 378.289338 200.611926"></polygon>
            <g id="DOCS" transform="translate(1695.8689, -57)" fill="#1BC1CF" fill-rule="nonzero">
                <path d="M77.2228818,257 L35.1441703,257 L35.4147865,230.139224 L77.2228818,230.139224 C89.4386681,230.139224 99.6657069,227.474993 107.903998,222.146531 C116.14229,216.818069 122.363997,209.190426 126.569119,199.263602 C130.774242,189.336778 132.876803,177.516345 132.876803,163.802303 L132.876803,153.053764 C132.876803,142.440534 131.681229,133.034505 129.290081,124.835678 C126.898933,116.636852 123.385855,109.725214 118.750847,104.100766 C114.115839,98.4763175 108.429727,94.2179877 101.69251,91.3257766 C94.955293,88.4335655 87.2293402,86.9874599 78.5146515,86.9874599 L34.3323216,86.9874599 L34.3323216,59.9913756 L78.5146515,59.9913756 C91.580342,59.9913756 103.526217,62.1834376 114.352276,66.5675617 C125.178335,70.9516857 134.530452,77.2466847 142.408626,85.4525584 C150.286801,93.6584322 156.358753,103.483423 160.624482,114.92753 C164.890212,126.371637 167.023076,139.170587 167.023076,153.324381 L167.023076,163.802303 C167.023076,177.922269 164.890212,190.712763 160.624482,202.173784 C156.358753,213.634804 150.266716,223.4457 142.348372,231.606471 C134.430028,239.767242 124.974316,246.03969 113.981236,250.423814 C102.988156,254.807938 90.7353709,257 77.2228818,257 Z M53.9519991,59.9913756 L53.9519991,257 L19.9833181,257 L19.9833181,59.9913756 L53.9519991,59.9913756 Z" id="Shape"></path>
                <path d="M373.926335,153.11719 L373.926335,163.924926 C373.926335,178.817276 371.985861,192.168382 368.104914,203.978244 C364.223967,215.788106 358.678096,225.83861 351.467301,234.129756 C344.256506,242.420902 335.661973,248.756423 325.683704,253.136319 C315.705435,257.516215 304.60136,259.706162 292.371479,259.706162 C280.337513,259.706162 269.322939,257.516215 259.327756,253.136319 C249.332573,248.756423 240.678491,242.420902 233.36551,234.129756 C226.052529,225.83861 220.398482,215.788106 216.403369,203.978244 C212.408255,192.168382 210.410699,178.817276 210.410699,163.924926 L210.410699,153.11719 C210.410699,138.22343 212.393808,124.877962 216.360028,113.080785 C220.326247,101.283609 225.935192,91.2250002 233.186861,82.9049602 C240.438531,74.5849202 249.061957,68.2349524 259.05714,63.8550567 C269.052322,59.475161 280.066897,57.2852131 292.100863,57.2852131 C304.330744,57.2852131 315.443276,59.475161 325.438458,63.8550567 C335.433641,68.2349524 344.050725,74.5849202 351.289709,82.9049602 C358.528694,91.2250002 364.111211,101.283609 368.03726,113.080785 C371.96331,124.877962 373.926335,138.22343 373.926335,153.11719 Z M339.881543,163.924926 L339.881543,152.846574 C339.881543,141.84856 338.818811,132.129279 336.693345,123.688731 C334.56788,115.248182 331.453327,108.159657 327.349685,102.423157 C323.246044,96.6866561 318.227311,92.3476348 312.293486,89.4060926 C306.359661,86.4645504 299.628786,84.9937793 292.100863,84.9937793 C284.644822,84.9937793 277.986534,86.4645504 272.126001,89.4060926 C266.265468,92.3476348 261.285848,96.6866561 257.187139,102.423157 C253.088431,108.159657 249.950269,115.248182 247.772654,123.688731 C245.595039,132.129279 244.506231,141.84856 244.506231,152.846574 L244.506231,163.924926 C244.506231,174.9469 245.595039,184.692256 247.772654,193.160994 C249.950269,201.629732 253.125429,208.763007 257.298134,214.560819 C261.470839,220.358631 266.495563,224.736765 272.372304,227.695221 C278.249046,230.653677 284.915438,232.132904 292.371479,232.132904 C299.955781,232.132904 306.692646,230.653677 312.582073,227.695221 C318.471499,224.736765 323.44513,220.358631 327.502964,214.560819 C331.560798,208.763007 334.638353,201.629732 336.735629,193.160994 C338.832905,184.692256 339.881543,174.9469 339.881543,163.924926 Z" id="Shape"></path>
                <path d="M539.861426,192.861836 L573.694799,192.861836 C572.606696,205.773896 568.993899,217.262049 562.856407,227.326295 C556.718915,237.390541 548.116279,245.303247 537.048497,251.064413 C525.980716,256.825579 512.470693,259.706162 496.518429,259.706162 C484.375935,259.706162 473.425843,257.524671 463.668154,253.161689 C453.910466,248.798707 445.574217,242.567486 438.659408,234.468027 C431.744599,226.368567 426.443974,216.596079 422.757533,205.150562 C419.071091,193.705046 417.22787,180.899048 417.22787,166.73257 L417.22787,150.394114 C417.22787,136.227636 419.104213,123.413181 422.8569,111.950751 C426.609586,100.488321 432.002883,90.6851772 439.036791,82.5413196 C446.070699,74.3974621 454.541551,68.1436899 464.449347,63.780003 C474.357144,59.416316 485.449238,57.2344726 497.725631,57.2344726 C513.438287,57.2344726 526.717863,60.1305597 537.564359,65.9227339 C548.410856,71.7149081 556.839072,79.698792 562.849007,89.8743855 C568.858943,100.049979 572.507329,111.748141 573.794166,124.968872 L539.960793,124.968872 C539.095385,116.431776 537.147864,109.146279 534.118231,103.112382 C531.088597,97.0784859 526.648447,92.4561632 520.79778,89.2454142 C514.947113,86.0346652 507.256397,84.4292908 497.725631,84.4292908 C490.037029,84.4292908 483.300165,85.882796 477.515038,88.7898064 C471.729911,91.6968168 466.89476,95.9523277 463.009584,101.556339 C459.124409,107.16035 456.211408,114.039923 454.270583,122.195056 C452.329757,130.350189 451.359344,139.65967 451.359344,150.123498 L451.359344,166.73257 C451.359344,176.683354 452.233561,185.699315 453.981996,193.780452 C455.73043,201.861588 458.430603,208.789787 462.082512,214.565048 C465.734422,220.340308 470.406428,224.78962 476.098531,227.912982 C481.790634,231.036345 488.597266,232.598026 496.518429,232.598026 C506.188732,232.598026 514.01828,231.06242 520.007073,227.991207 C525.995867,224.919995 530.557231,220.431571 533.691164,214.525935 C536.825098,208.620299 538.881852,201.398933 539.861426,192.861836 Z" id="Path"></path>
                <path d="M723.915269,206.261569 C723.915269,202.224876 723.307439,198.623707 722.091781,195.458061 C720.876122,192.292415 718.722115,189.398794 715.629761,186.777199 C712.537406,184.155604 708.228688,181.61153 702.703607,179.144976 C697.178525,176.678421 690.118542,174.142099 681.523657,171.536008 C672.17894,168.649435 663.549524,165.40803 655.635408,161.811794 C647.721293,158.215558 640.835025,154.059061 634.976607,149.342305 C629.118188,144.625548 624.5681,139.166007 621.326343,132.96368 C618.084586,126.761353 616.463707,119.611516 616.463707,111.514171 C616.463707,103.547905 618.15823,96.2592375 621.547276,89.6481673 C624.936321,83.037097 629.751035,77.3185671 635.991418,72.4925774 C642.2318,67.6665878 649.63851,63.9255297 658.211548,61.269403 C666.784586,58.6132764 676.272011,57.2852131 686.673823,57.2852131 C701.333612,57.2852131 713.960608,59.9882043 724.554811,65.3941866 C735.149014,70.8001688 743.309433,78.0525432 749.036067,87.1513096 C754.762702,96.250076 757.626019,106.338635 757.626019,117.416988 L723.843386,117.416988 C723.843386,110.915151 722.471982,105.156451 719.729174,100.140889 C716.986366,95.1253273 712.843259,91.178488 707.299854,88.3003715 C701.75645,85.422255 694.747912,83.9831968 686.274241,83.9831968 C678.209313,83.9831968 671.519666,85.1988557 666.205298,87.6301735 C660.890931,90.0614913 656.925416,93.3448274 654.308754,97.4801819 C651.692093,101.615536 650.383762,106.285781 650.383762,111.490915 C650.383762,115.210479 651.246703,118.579087 652.972587,121.59674 C654.69847,124.614393 657.316894,127.417456 660.827857,130.005929 C664.338821,132.594401 668.755011,135.007044 674.076425,137.243856 C679.39784,139.480668 685.654079,141.643484 692.845142,143.732303 C703.765635,146.955737 713.293229,150.54845 721.427925,154.510441 C729.562621,158.472432 736.334722,162.932667 741.744228,167.891145 C747.153734,172.849624 751.210159,178.464559 753.913502,184.735949 C756.616846,191.00734 757.968517,198.092341 757.968517,205.990953 C757.968517,214.31804 756.311698,221.795223 752.998058,228.422502 C749.684419,235.049781 744.939473,240.688676 738.763221,245.339188 C732.586969,249.9897 725.19083,253.546824 716.574803,256.010559 C707.958777,258.474295 698.347672,259.706162 687.741488,259.706162 C678.265692,259.706162 668.948107,258.43483 659.788733,255.892165 C650.62936,253.3495 642.323062,249.494628 634.86984,244.327549 C627.416618,239.16047 621.464822,232.673784 617.014454,224.867493 C612.564085,217.061201 610.338901,207.909932 610.338901,197.413686 L644.27164,197.413686 C644.27164,203.815452 645.380885,209.271822 647.599374,213.782798 C649.817864,218.293773 652.914799,221.986909 656.89018,224.862207 C660.86556,227.737505 665.48894,229.836542 670.760319,231.15932 C676.031698,232.482098 681.692088,233.143487 687.741488,233.143487 C695.726077,233.143487 702.394935,232.021557 707.748063,229.777697 C713.10119,227.533838 717.134006,224.389686 719.846511,220.345241 C722.559016,216.300797 723.915269,211.60624 723.915269,206.261569 Z" id="Path"></path>
            </g>
        </g>
    </g>
</svg>