<?xml version="1.0" encoding="UTF-8"?>
<svg width="778px" height="106px" viewBox="0 0 778 106" version="1.1" xmlns="http://www.w3.org/2000/svg" xmlns:xlink="http://www.w3.org/1999/xlink">
    <title>paradex-white</title>
    <g id="New-Logos" stroke="none" stroke-width="1" fill="none" fill-rule="evenodd">
        <g id="Dark_1080x1080" transform="translate(-151, -487)" fill="#FFFFFF">
            <g id="paradex-white" transform="translate(151.6073, 487)">
                <path d="M88.0244543,14.0570221 C86.7344304,12.2037481 85.2324306,10.4837161 83.5426808,8.92720832 C77.5467947,3.40978174 69.2857959,0.00605645069 60.1344989,0.00605645069 L0,0.00605645069 L7.33436179,12.7730545 C8.95749057,15.5953605 11.9614901,17.3335619 15.2138041,17.3335619 L32.8138498,17.3335619 L60.1405554,17.3032796 C64.1014741,17.3032796 67.67478,18.7749971 70.254828,21.1672952 C72.8469889,23.5414238 74.4519483,26.836133 74.4519483,30.463947 C74.4519483,37.7377443 68.05028,43.6367272 60.1405554,43.6367272 L51.4798309,43.606445 L11.2831676,43.606445 L18.6175294,56.373443 C20.2406582,59.1957491 23.2446578,60.9339504 26.4969718,60.9339504 L30.0581648,60.9339504 C31.5843904,60.9339504 32.8199063,62.1694663 32.8199063,63.6956919 L32.8199063,106 L46.92538,95.1105017 C49.1541538,93.3904697 50.4562907,90.7316878 50.4562907,87.9214947 L50.4562907,63.7017484 C50.4562907,62.1755228 51.6918067,60.9400069 53.2180322,60.9400069 L60.1405554,60.9400069 C73.2951663,60.9400069 84.6510113,53.8781854 89.9867444,43.6427837 C92.0701634,39.6576391 93.2390584,35.1879785 93.2390584,30.4700034 C93.2390584,24.4256656 91.32522,18.8052794 88.0305108,14.069135 L88.0244543,14.0570221 Z" id="Path"></path>
                <polygon id="Vector" fill-rule="nonzero" points="776.785306 0.00605645069 754.915463 0.00605645069 734.499168 30.6456405 714.082872 0.00605645069 692.213029 0.00605645069 723.567274 47.0525654 692.213029 94.1051308 714.082872 94.1051308 734.499168 63.4594903 754.915463 94.1051308 776.785306 94.1051308 745.431061 47.0525654"></polygon>
                <path d="M589.204916,94.1051308 L654.335986,94.1051308 L654.335986,76.7836819 L589.204916,76.7836819 L589.204916,94.1051308 Z M589.204916,17.3275054 L654.202744,17.3275054 L654.202744,0.00605645069 L589.204916,0.00605645069 L589.204916,17.3275054 L589.204916,17.3275054 Z M589.144351,55.7132899 L629.559047,55.7132899 L629.559047,38.3918409 L589.144351,38.3918409 L589.144351,55.7132899 Z" id="Vector1"></path>
                <path d="M553.907921,47.0525654 C553.907921,60.0557651 548.426833,71.8113358 539.560189,80.3206491 C530.693545,88.8420752 518.447402,94.1051308 504.929404,94.1051308 L479.032021,94.1051308 L479.032021,76.7836819 L504.929404,76.7836819 C522.026765,76.7836819 535.877867,63.4716032 535.877867,47.0525654 C535.877867,38.8400183 532.413577,31.4148097 526.811361,26.0306251 C521.209144,20.6524969 513.475056,17.321449 504.929404,17.321449 L479.032021,17.321449 L479.032021,0 L504.929404,0 C531.971457,0 553.907921,21.0582791 553.907921,47.0525654 Z" id="Vector2" fill-rule="nonzero"></path>
                <polygon id="Vector3" fill-rule="nonzero" points="442.033164 94.0990744 406.69983 0.00605645069 384.896608 0.00605645069 384.902664 0.00605645069 384.872382 0.00605645069 349.539049 94.1051308 371.336215 94.1051308 395.786106 28.9982859 420.235998 94.0990744"></polygon>
                <path d="M290.912606,59.4561764 L314.296562,94.1051308 L292.148122,94.1051308 L269.775593,60.927894 L239.414606,60.927894 L239.414606,43.6367272 L280.51368,43.6367272 C288.580873,43.6367272 295.115783,37.7316878 295.115783,30.4578905 C295.115783,26.8300766 293.492654,23.5414238 290.845985,21.1733516 C288.211429,18.7749971 284.565446,17.3032796 280.519737,17.3032796 L239.420662,17.3032796 L239.420662,0.0121129014 L280.519737,0.0121129014 C289.86484,0.0121129014 298.289363,3.42189464 304.412435,8.93932122 C306.12641,10.4897726 307.658692,12.215861 308.978999,14.0630785 C312.346385,18.8052794 314.302619,24.4256656 314.302619,30.4578905 C314.302619,35.1819221 313.103441,39.6394698 310.977627,43.6367272 C307.010652,51.092218 299.773193,56.8821849 290.918663,59.4561764 L290.912606,59.4561764 Z" id="Vector4" fill-rule="nonzero"></path>
                <polygon id="Vector5" fill-rule="nonzero" points="202.421805 94.0990744 167.088472 0.00605645069 145.291306 0.00605645069 145.291306 0.00605645069 145.261023 0.00605645069 109.92769 94.1051308 131.724856 94.1051308 156.174748 28.9982859 180.624639 94.0990744"></polygon>
            </g>
        </g>
    </g>
</svg>