<?xml version="1.0" encoding="UTF-8"?>
<svg width="21px" height="20px" viewBox="0 0 21 20" version="1.1" xmlns="http://www.w3.org/2000/svg" xmlns:xlink="http://www.w3.org/1999/xlink">
    <title>SVG</title>
    <defs>
        <path d="M8,0 L202,0 C206.418278,-8.11624501e-16 210,3.581722 210,8 L210,132 C210,136.418278 206.418278,140 202,140 L8,140 C3.581722,140 2.705415e-16,136.418278 0,132 L0,8 C-5.41083001e-16,3.581722 3.581722,5.41083001e-16 8,0 Z" id="path-1"></path>
    </defs>
    <g id="Docs-Landing" stroke="none" stroke-width="1" fill="none" fill-rule="evenodd">
        <g id="Docs-Landing-1" transform="translate(-550, -597)">
            <g id="Stack-2" transform="translate(535, 579.4516)" xlink:href="#path-1">
                <path stroke="#302F38" d="M202,0.5 C204.071068,0.5 205.946068,1.33946609 207.303301,2.69669914 C208.660534,4.05393219 209.5,5.92893219 209.5,8 L209.5,132 C209.5,134.071068 208.660534,135.946068 207.303301,137.303301 C205.946068,138.660534 204.071068,139.5 202,139.5 L8,139.5 C5.92893219,139.5 4.05393219,138.660534 2.69669914,137.303301 C1.33946609,135.946068 0.5,134.071068 0.5,132 L0.5,8 C0.5,5.92893219 1.33946609,4.05393219 2.69669914,2.69669914 C4.05393219,1.33946609 5.92893219,0.5 8,0.5 Z" stroke-linejoin="square"></path>
                <g id="Stack" transform="translate(16, 19)" fill-rule="evenodd" opacity="0.99" stroke="#CC38FF" stroke-linecap="round" stroke-linejoin="round">
                    <g id="SVG">
                        <path d="M0,7.43839912 L1.08181,9.99189881 C1.44129,10.8403987 2.65717,10.7932987 2.95023,9.91949882 L4.29919,5.89753931 C4.60759,4.97802942 5.90997,4.99041941 6.20089,5.9156293 L9.4658,16.2990981 C9.7709,17.2694979 11.1582,17.2191979 11.3926,16.2292981 L15.0524,0.770749921 C15.2824,-0.200489963 16.6336,-0.274309954 16.9676,0.666129933 L19,6.38928925" id="Path" stroke-width="1.4"></path>
                    </g>
                </g>
            </g>
        </g>
    </g>
</svg>