<?xml version="1.0" encoding="UTF-8"?>
<svg width="16px" height="18px" viewBox="0 0 16 18" version="1.1" xmlns="http://www.w3.org/2000/svg" xmlns:xlink="http://www.w3.org/1999/xlink">
    <title>Group 63</title>
    <defs>
        <path d="M8,0 L202,0 C206.418278,-8.11624501e-16 210,3.581722 210,8 L210,132 C210,136.418278 206.418278,140 202,140 L8,140 C3.581722,140 2.705415e-16,136.418278 0,132 L0,8 C-5.41083001e-16,3.581722 3.581722,5.41083001e-16 8,0 Z" id="path-1"></path>
    </defs>
    <g id="Docs-Landing" stroke="none" stroke-width="1" fill="none" fill-rule="evenodd">
        <g id="Docs-Landing-1" transform="translate(-336, -598)">
            <g id="Stack-2" transform="translate(320, 579.4516)" xlink:href="#path-1">
                <path stroke="#302F38" d="M202,0.5 C204.071068,0.5 205.946068,1.33946609 207.303301,2.69669914 C208.660534,4.05393219 209.5,5.92893219 209.5,8 L209.5,132 C209.5,134.071068 208.660534,135.946068 207.303301,137.303301 C205.946068,138.660534 204.071068,139.5 202,139.5 L8,139.5 C5.92893219,139.5 4.05393219,138.660534 2.69669914,137.303301 C1.33946609,135.946068 0.5,134.071068 0.5,132 L0.5,8 C0.5,5.92893219 1.33946609,4.05393219 2.69669914,2.69669914 C4.05393219,1.33946609 5.92893219,0.5 8,0.5 Z" stroke-linejoin="square"></path>
                <g id="Stack" transform="translate(16, 18.6)" fill="#00ee91" fill-rule="evenodd">
                    <g id="Group-63" transform="translate(0.7, 0.7)">
                        <g id="Group-62" transform="translate(9, 0)" fill-rule="nonzero">
                            <path d="M2.4999,12.4942966 C2.96656667,12.7032304 3.1999,12.9365637 3.1999,13.1942966 L3.1999,16 C3.1999,16.3865993 2.88649932,16.7 2.4999,16.7 C2.11330068,16.7 1.7999,16.3865993 1.7999,16 L1.7999,13.1942966 C1.7999,12.9365637 2.03323333,12.7032304 2.4999,12.4942966 Z" id="Path-2"></path>
                            <path d="M2.4999,-0.7 C2.88649932,-0.7 3.1999,-0.386599325 3.1999,0 L3.1999,2.7129832 C3.1999,3.09958252 2.88649932,3.4129832 2.4999,3.4129832 C2.11330068,3.4129832 1.7999,3.09958252 1.7999,2.7129832 L1.7999,0 C1.7999,-0.386599325 2.11330068,-0.7 2.4999,-0.7 Z" id="Path-2"></path>
                            <path d="M4,2.30383804 C4.93888407,2.30383804 5.7,3.06495396 5.7,4.00383804 L5.7,11.996162 C5.7,12.935046 4.93888407,13.696162 4,13.696162 L1,13.696162 C0.0611159253,13.696162 -0.7,12.935046 -0.7,11.996162 L-0.7,4.00383804 C-0.7,3.06495396 0.0611159253,2.30383804 1,2.30383804 L4,2.30383804 Z M4,3.70383804 L1,3.70383804 C0.834314575,3.70383804 0.7,3.83815261 0.7,4.00383804 L0.7,11.996162 C0.7,12.1618474 0.834314575,12.296162 1,12.296162 L4,12.296162 C4.16568542,12.296162 4.3,12.1618474 4.3,11.996162 L4.3,4.00383804 C4.3,3.83815261 4.16568542,3.70383804 4,3.70383804 Z" id="Combined-Shape"></path>
                        </g>
                        <path d="M2.4999,5.83210905 C2.88649932,5.83210905 3.1999,6.14550973 3.1999,6.53210905 L3.199,8.21210905 L4,8.21297114 C4.93888407,8.21297114 5.7,8.97408706 5.7,9.91297114 L5.7,13.280024 C5.7,14.2189081 4.93888407,14.980024 4,14.980024 L3.199,14.9791091 L3.1999,16 C3.1999,16.3865993 2.88649932,16.7 2.4999,16.7 C2.11330068,16.7 1.7999,16.3865993 1.7999,16 L1.799,14.9791091 L1,14.980024 C0.0611159253,14.980024 -0.7,14.2189081 -0.7,13.280024 L-0.7,9.91297114 C-0.7,8.97408706 0.0611159253,8.21297114 1,8.21297114 L1.799,8.21210905 L1.7999,6.53210905 C1.7999,6.14550973 2.11330068,5.83210905 2.4999,5.83210905 Z M4,9.61297114 L1,9.61297114 C0.834314575,9.61297114 0.7,9.74728571 0.7,9.91297114 L0.7,13.280024 C0.7,13.4457095 0.834314575,13.580024 1,13.580024 L4,13.580024 C4.16568542,13.580024 4.3,13.4457095 4.3,13.280024 L4.3,9.91297114 C4.3,9.74728571 4.16568542,9.61297114 4,9.61297114 Z" id="Combined-Shape" fill-rule="nonzero"></path>
                    </g>
                </g>
            </g>
        </g>
    </g>
</svg>