<?xml version="1.0" encoding="UTF-8"?>
<svg width="20px" height="20px" viewBox="0 0 20 20" version="1.1" xmlns="http://www.w3.org/2000/svg" xmlns:xlink="http://www.w3.org/1999/xlink">
    <title>SVG Copy</title>
    <defs>
        <path d="M8,0 L202,0 C206.418278,-8.11624501e-16 210,3.581722 210,8 L210,132 C210,136.418278 206.418278,140 202,140 L8,140 C3.581722,140 2.705415e-16,136.418278 0,132 L0,8 C-5.41083001e-16,3.581722 3.581722,5.41083001e-16 8,0 Z" id="path-1"></path>
    </defs>
    <g id="Docs-Landing" stroke="none" stroke-width="1" fill="none" fill-rule="evenodd">
        <g id="Docs-Landing-1" transform="translate(-765, -596)">
            <g id="Stack-2" transform="translate(750, 579.4516)" xlink:href="#path-1">
                <path stroke="#302F38" d="M202,0.5 C204.071068,0.5 205.946068,1.33946609 207.303301,2.69669914 C208.660534,4.05393219 209.5,5.92893219 209.5,8 L209.5,132 C209.5,134.071068 208.660534,135.946068 207.303301,137.303301 C205.946068,138.660534 204.071068,139.5 202,139.5 L8,139.5 C5.92893219,139.5 4.05393219,138.660534 2.69669914,137.303301 C1.33946609,135.946068 0.5,134.071068 0.5,132 L0.5,8 C0.5,5.92893219 1.33946609,4.05393219 2.69669914,2.69669914 C4.05393219,1.33946609 5.92893219,0.5 8,0.5 Z" stroke-linejoin="square"></path>
                <g id="Stack" transform="translate(16, 17.368)" fill-rule="evenodd" opacity="0.99">
                    <g id="SVG-Copy">
                        <path d="M16.0586152,18.632 C15.8501173,18.632 15.6810383,18.4629207 15.6810383,18.2544221 L15.6810383,10.9722542 C15.6810383,10.7637557 15.8501173,10.5947872 16.0586152,10.5947872 C16.2671131,10.5947872 16.4361931,10.7637557 16.4361931,10.9722542 L16.4361931,18.2544221 C16.4361931,18.4629207 16.2671131,18.632 16.0586152,18.632 Z M16.0601654,17.844069 C15.5928997,17.844069 15.186977,17.7698809 14.8421748,17.6216178 C14.4974833,17.4732439 14.2280854,17.2616454 14.0339819,16.9866001 C13.9320028,16.8421016 13.8538306,16.6828774 13.7996854,16.5090364 C13.7163084,16.2417419 13.9467293,16.00235 14.2267566,16.00235 C14.4792129,16.00235 14.6733173,16.2070839 14.7973309,16.4269873 C14.8253447,16.4765929 14.8578977,16.5229873 14.8948803,16.56606 C15.0227694,16.7148767 15.1884164,16.8257139 15.3919317,16.8985721 C15.5954469,16.971541 15.816678,17.0079709 16.0556258,17.0079709 C16.3201513,17.0079709 16.5558885,16.9661155 16.7628362,16.8822953 C16.969784,16.7984751 17.1327724,16.6805522 17.2520249,16.5285244 C17.3711665,16.3763858 17.4307372,16.2004408 17.4307372,16.0004683 C17.4307372,15.8181013 17.3789182,15.6689515 17.2751675,15.5527992 C17.1713061,15.4366468 17.03024,15.3399825 16.8517489,15.2629167 C16.6733686,15.1857401 16.4714045,15.1176434 16.2459654,15.0586261 L15.5130662,14.8588751 C15.0006241,14.7206881 14.6011236,14.5169509 14.3144528,14.2477741 C14.0277819,13.9787081 13.884502,13.6301398 13.884502,13.2024022 C13.884502,12.8416544 13.981941,12.5259726 14.1767089,12.2554671 C14.3715875,11.9849616 14.6362238,11.7750238 14.9707285,11.6257641 C15.3051224,11.4763937 15.6822567,11.4017637 16.10191,11.4017637 C16.5304214,11.4017637 16.9074448,11.4767259 17.2330913,11.6265392 C17.5586271,11.7763525 17.8146273,11.9815288 18.0009799,12.2420689 C18.0903362,12.3670794 18.1594289,12.5003948 18.2081486,12.6420144 C18.2971726,12.9007828 18.0688546,13.1322022 17.7952496,13.1322022 C17.5482188,13.1322022 17.3563308,12.9330038 17.2221303,12.7256126 C17.1572446,12.6252941 17.0708767,12.5389279 16.9630291,12.4664019 C16.7297285,12.3093913 16.4358605,12.230996 16.0813143,12.230996 C15.8297438,12.230996 15.6106158,12.2707474 15.4241525,12.35036 C15.2375784,12.4299725 15.0936345,12.5389277 14.992209,12.677004 C14.8908943,12.815191 14.8401811,12.9729763 14.8401811,13.1502498 C14.8401811,13.3467899 14.9009706,13.5063475 15.022659,13.6287006 C15.1442367,13.7510536 15.2926094,13.8476078 15.4676679,13.9182515 C15.6427265,13.9888952 15.8098134,14.0451435 15.9689273,14.0871089 L16.5740478,14.247885 C16.7737984,14.297712 16.9790844,14.3655874 17.1900183,14.4515114 C17.4010629,14.5374354 17.5964953,14.6482723 17.7764258,14.7839126 C17.9563563,14.9196636 18.101741,15.0876365 18.212689,15.288052 C18.3235262,15.4883567 18.379,15.7292986 18.379,16.0107661 C18.379,16.3648703 18.2878718,16.68011 18.105616,16.9567055 C17.9233602,17.233301 17.6593879,17.4503247 17.3136998,17.6077782 C16.9679011,17.7653424 16.55013,17.844069 16.0601654,17.844069 Z" id="Vector" fill="#CC38FF" fill-rule="nonzero"></path>
                        <path d="M11.7152595,17.7162889 L3.54324737,17.7162889 C1.58636721,17.7162889 0,16.1299067 0,14.1730326 L0,3.54325208 C0,1.58636684 1.58636721,0 3.54324737,0 L14.1729451,0 C16.1299249,0 17.7161922,1.58636684 17.7161922,3.54325208 L17.7161922,8.85814762" id="Vector" stroke="#CC38FF" stroke-width="1.16666663" stroke-linecap="round" fill-rule="nonzero"></path>
                        <path d="M11.4403259,5.92102136 L14.3093599,5.92102136 L14.3093599,8.78999588 M14.0065225,6.23660357 L10.5804242,9.65308889 C9.94596152,10.2858592 8.91888467,10.285084 8.28527457,9.65149437 C7.65103334,9.01725145 6.62272734,9.01725145 5.98849712,9.65149437 L3.40721971,12.2327681" id="Vector" stroke="#CC38FF" stroke-width="1.16666663" stroke-linecap="round" stroke-linejoin="round" fill-rule="nonzero"></path>
                    </g>
                </g>
            </g>
        </g>
    </g>
</svg>